<mxfile host="app.diagrams.net" modified="2023-08-22T01:51:47.462Z" agent="Mozilla/5.0 (Windows NT 10.0; Win64; x64) AppleWebKit/537.36 (KHTML, like Gecko) Chrome/116.0.0.0 Safari/537.36" etag="BTJj9ME8dHFM55ZZjpUe" version="21.6.8" type="github">
  <diagram name="第 1 页" id="fxrkG2htSmhJT_0z3Aou">
    <mxGraphModel dx="2261" dy="790" grid="1" gridSize="10" guides="1" tooltips="1" connect="1" arrows="1" fold="1" page="1" pageScale="1" pageWidth="827" pageHeight="1169" math="0" shadow="0">
      <root>
        <mxCell id="0" />
        <mxCell id="1" parent="0" />
        <mxCell id="FZ6v5sqUs1EsnQ-WUJlG-2" value="客户（TPY）" style="swimlane;whiteSpace=wrap;html=1;startSize=53;movable=1;resizable=1;rotatable=1;deletable=1;editable=1;locked=0;connectable=1;fillColor=#eeeeee;strokeColor=#36393d;fontSize=14;" parent="1" vertex="1">
          <mxGeometry x="-680" y="30" width="350" height="950" as="geometry">
            <mxRectangle x="110" y="180" width="140" height="30" as="alternateBounds" />
          </mxGeometry>
        </mxCell>
        <mxCell id="FZ6v5sqUs1EsnQ-WUJlG-105" style="edgeStyle=orthogonalEdgeStyle;rounded=0;orthogonalLoop=1;jettySize=auto;html=1;exitX=0.5;exitY=1;exitDx=0;exitDy=0;entryX=0.5;entryY=0;entryDx=0;entryDy=0;fillColor=#e51400;strokeColor=#B20000;strokeWidth=2;" parent="FZ6v5sqUs1EsnQ-WUJlG-2" source="FZ6v5sqUs1EsnQ-WUJlG-101" target="FZ6v5sqUs1EsnQ-WUJlG-103" edge="1">
          <mxGeometry relative="1" as="geometry" />
        </mxCell>
        <mxCell id="FZ6v5sqUs1EsnQ-WUJlG-106" value="三要素+支付金额+渠道号（TPY）" style="edgeLabel;html=1;align=center;verticalAlign=middle;resizable=0;points=[];" parent="FZ6v5sqUs1EsnQ-WUJlG-105" vertex="1" connectable="0">
          <mxGeometry y="-1" relative="1" as="geometry">
            <mxPoint as="offset" />
          </mxGeometry>
        </mxCell>
        <mxCell id="FZ6v5sqUs1EsnQ-WUJlG-101" value="开始" style="rounded=1;whiteSpace=wrap;html=1;verticalAlign=middle;align=center;fillColor=#dae8fc;strokeColor=#6c8ebf;" parent="FZ6v5sqUs1EsnQ-WUJlG-2" vertex="1">
          <mxGeometry x="92" y="91" width="120" height="60" as="geometry" />
        </mxCell>
        <mxCell id="FZ6v5sqUs1EsnQ-WUJlG-103" value="创建支付清单" style="rounded=0;whiteSpace=wrap;html=1;verticalAlign=middle;align=center;fillColor=#fff2cc;strokeColor=#d6b656;" parent="FZ6v5sqUs1EsnQ-WUJlG-2" vertex="1">
          <mxGeometry x="92" y="237" width="120" height="60" as="geometry" />
        </mxCell>
        <mxCell id="FZ6v5sqUs1EsnQ-WUJlG-98" value="接单&amp;amp;支付流程" style="rounded=0;whiteSpace=wrap;html=1;fillColor=#eeeeee;strokeColor=#36393d;fontSize=18;fontStyle=1" parent="1" vertex="1">
          <mxGeometry x="-780" y="30" width="100" height="950" as="geometry" />
        </mxCell>
        <mxCell id="FZ6v5sqUs1EsnQ-WUJlG-107" value="支付清单（TPY）" style="swimlane;whiteSpace=wrap;html=1;startSize=53;movable=1;resizable=1;rotatable=1;deletable=1;editable=1;locked=0;connectable=1;fillColor=#eeeeee;strokeColor=#36393d;fontSize=14;" parent="1" vertex="1">
          <mxGeometry x="-330" y="30" width="350" height="950" as="geometry">
            <mxRectangle x="110" y="180" width="140" height="30" as="alternateBounds" />
          </mxGeometry>
        </mxCell>
        <mxCell id="FZ6v5sqUs1EsnQ-WUJlG-119" style="edgeStyle=orthogonalEdgeStyle;rounded=0;orthogonalLoop=1;jettySize=auto;html=1;exitX=0.5;exitY=1;exitDx=0;exitDy=0;entryX=0.5;entryY=0;entryDx=0;entryDy=0;fillColor=#e51400;strokeColor=#B20000;strokeWidth=2;" parent="FZ6v5sqUs1EsnQ-WUJlG-107" source="FZ6v5sqUs1EsnQ-WUJlG-111" target="FZ6v5sqUs1EsnQ-WUJlG-114" edge="1">
          <mxGeometry relative="1" as="geometry" />
        </mxCell>
        <mxCell id="FZ6v5sqUs1EsnQ-WUJlG-156" value="判断" style="edgeLabel;html=1;align=center;verticalAlign=middle;resizable=0;points=[];" parent="FZ6v5sqUs1EsnQ-WUJlG-119" vertex="1" connectable="0">
          <mxGeometry x="-0.0246" y="-3" relative="1" as="geometry">
            <mxPoint as="offset" />
          </mxGeometry>
        </mxCell>
        <mxCell id="FZ6v5sqUs1EsnQ-WUJlG-111" value="接收清单" style="rounded=0;whiteSpace=wrap;html=1;verticalAlign=middle;align=center;fillColor=#fff2cc;strokeColor=#d6b656;" parent="FZ6v5sqUs1EsnQ-WUJlG-107" vertex="1">
          <mxGeometry x="105" y="237" width="120" height="60" as="geometry" />
        </mxCell>
        <mxCell id="FZ6v5sqUs1EsnQ-WUJlG-123" style="edgeStyle=orthogonalEdgeStyle;rounded=0;orthogonalLoop=1;jettySize=auto;html=1;exitX=0.5;exitY=1;exitDx=0;exitDy=0;entryX=0.5;entryY=0;entryDx=0;entryDy=0;fillColor=#e51400;strokeColor=#B20000;strokeWidth=2;" parent="FZ6v5sqUs1EsnQ-WUJlG-107" source="FZ6v5sqUs1EsnQ-WUJlG-114" target="FZ6v5sqUs1EsnQ-WUJlG-122" edge="1">
          <mxGeometry relative="1" as="geometry" />
        </mxCell>
        <mxCell id="FZ6v5sqUs1EsnQ-WUJlG-124" value="是" style="edgeLabel;html=1;align=center;verticalAlign=middle;resizable=0;points=[];" parent="FZ6v5sqUs1EsnQ-WUJlG-123" vertex="1" connectable="0">
          <mxGeometry relative="1" as="geometry">
            <mxPoint x="-1" as="offset" />
          </mxGeometry>
        </mxCell>
        <mxCell id="FZ6v5sqUs1EsnQ-WUJlG-133" style="edgeStyle=orthogonalEdgeStyle;rounded=0;orthogonalLoop=1;jettySize=auto;html=1;exitX=0;exitY=0.5;exitDx=0;exitDy=0;entryX=0;entryY=0.5;entryDx=0;entryDy=0;fillColor=#e51400;strokeColor=#B20000;strokeWidth=2;" parent="FZ6v5sqUs1EsnQ-WUJlG-107" source="FZ6v5sqUs1EsnQ-WUJlG-114" target="FZ6v5sqUs1EsnQ-WUJlG-132" edge="1">
          <mxGeometry relative="1" as="geometry">
            <Array as="points">
              <mxPoint x="40" y="402" />
              <mxPoint x="40" y="707" />
            </Array>
          </mxGeometry>
        </mxCell>
        <mxCell id="FZ6v5sqUs1EsnQ-WUJlG-135" value="否" style="edgeLabel;html=1;align=center;verticalAlign=middle;resizable=0;points=[];" parent="FZ6v5sqUs1EsnQ-WUJlG-133" vertex="1" connectable="0">
          <mxGeometry x="-0.1541" relative="1" as="geometry">
            <mxPoint y="-56" as="offset" />
          </mxGeometry>
        </mxCell>
        <mxCell id="FZ6v5sqUs1EsnQ-WUJlG-114" value="名称带有&lt;br style=&quot;border-color: var(--border-color); font-size: 10px;&quot;&gt;&lt;span style=&quot;font-size: 10px;&quot;&gt;公司|责任|有限|无限&lt;/span&gt;" style="rhombus;whiteSpace=wrap;html=1;dashed=1;fillColor=#fff2cc;strokeColor=#d6b656;" parent="FZ6v5sqUs1EsnQ-WUJlG-107" vertex="1">
          <mxGeometry x="75" y="352" width="180" height="99" as="geometry" />
        </mxCell>
        <mxCell id="FZ6v5sqUs1EsnQ-WUJlG-122" value="对公&lt;br&gt;待付清单" style="rounded=0;whiteSpace=wrap;html=1;verticalAlign=middle;align=center;fillColor=#fff2cc;strokeColor=#d6b656;" parent="FZ6v5sqUs1EsnQ-WUJlG-107" vertex="1">
          <mxGeometry x="105" y="513" width="120" height="60" as="geometry" />
        </mxCell>
        <mxCell id="FZ6v5sqUs1EsnQ-WUJlG-132" value="对私&lt;br&gt;待付清单" style="rounded=0;whiteSpace=wrap;html=1;verticalAlign=middle;align=center;fillColor=#fff2cc;strokeColor=#d6b656;" parent="FZ6v5sqUs1EsnQ-WUJlG-107" vertex="1">
          <mxGeometry x="105" y="677" width="120" height="60" as="geometry" />
        </mxCell>
        <mxCell id="FZ6v5sqUs1EsnQ-WUJlG-120" style="edgeStyle=orthogonalEdgeStyle;rounded=0;orthogonalLoop=1;jettySize=auto;html=1;exitX=1;exitY=0.5;exitDx=0;exitDy=0;entryX=0;entryY=0.5;entryDx=0;entryDy=0;fillColor=#e51400;strokeColor=#B20000;strokeWidth=2;" parent="1" source="FZ6v5sqUs1EsnQ-WUJlG-103" target="FZ6v5sqUs1EsnQ-WUJlG-111" edge="1">
          <mxGeometry relative="1" as="geometry" />
        </mxCell>
        <mxCell id="FZ6v5sqUs1EsnQ-WUJlG-121" value="API单条传送" style="edgeLabel;html=1;align=center;verticalAlign=middle;resizable=0;points=[];" parent="FZ6v5sqUs1EsnQ-WUJlG-120" vertex="1" connectable="0">
          <mxGeometry x="0.0206" relative="1" as="geometry">
            <mxPoint y="-1" as="offset" />
          </mxGeometry>
        </mxCell>
        <mxCell id="FZ6v5sqUs1EsnQ-WUJlG-136" value="财务操作管理" style="swimlane;whiteSpace=wrap;html=1;startSize=53;movable=1;resizable=1;rotatable=1;deletable=1;editable=1;locked=0;connectable=1;fillColor=#eeeeee;strokeColor=#36393d;fontSize=14;" parent="1" vertex="1">
          <mxGeometry x="20" y="30" width="350" height="950" as="geometry">
            <mxRectangle x="110" y="180" width="140" height="30" as="alternateBounds" />
          </mxGeometry>
        </mxCell>
        <mxCell id="FZ6v5sqUs1EsnQ-WUJlG-144" value="批量导出&lt;br&gt;EXCL模版" style="rounded=0;whiteSpace=wrap;html=1;verticalAlign=middle;align=center;fillColor=#fff2cc;strokeColor=#d6b656;" parent="FZ6v5sqUs1EsnQ-WUJlG-136" vertex="1">
          <mxGeometry x="105" y="513" width="120" height="60" as="geometry" />
        </mxCell>
        <mxCell id="FZ6v5sqUs1EsnQ-WUJlG-145" value="批量导出&lt;br&gt;EXCL模版" style="rounded=0;whiteSpace=wrap;html=1;verticalAlign=middle;align=center;fillColor=#fff2cc;strokeColor=#d6b656;" parent="FZ6v5sqUs1EsnQ-WUJlG-136" vertex="1">
          <mxGeometry x="105" y="677" width="120" height="60" as="geometry" />
        </mxCell>
        <mxCell id="FZ6v5sqUs1EsnQ-WUJlG-146" style="edgeStyle=orthogonalEdgeStyle;rounded=0;orthogonalLoop=1;jettySize=auto;html=1;exitX=1;exitY=0.5;exitDx=0;exitDy=0;entryX=0;entryY=0.5;entryDx=0;entryDy=0;fillColor=#e51400;strokeColor=#B20000;strokeWidth=2;" parent="1" source="FZ6v5sqUs1EsnQ-WUJlG-122" target="FZ6v5sqUs1EsnQ-WUJlG-144" edge="1">
          <mxGeometry relative="1" as="geometry" />
        </mxCell>
        <mxCell id="FZ6v5sqUs1EsnQ-WUJlG-147" style="edgeStyle=orthogonalEdgeStyle;rounded=0;orthogonalLoop=1;jettySize=auto;html=1;exitX=1;exitY=0.5;exitDx=0;exitDy=0;entryX=0;entryY=0.5;entryDx=0;entryDy=0;fillColor=#e51400;strokeColor=#B20000;strokeWidth=2;" parent="1" source="FZ6v5sqUs1EsnQ-WUJlG-132" target="FZ6v5sqUs1EsnQ-WUJlG-145" edge="1">
          <mxGeometry relative="1" as="geometry" />
        </mxCell>
        <mxCell id="FZ6v5sqUs1EsnQ-WUJlG-148" value="支付平台" style="swimlane;whiteSpace=wrap;html=1;startSize=53;movable=1;resizable=1;rotatable=1;deletable=1;editable=1;locked=0;connectable=1;fillColor=#eeeeee;strokeColor=#36393d;fontSize=14;" parent="1" vertex="1">
          <mxGeometry x="370" y="30" width="350" height="950" as="geometry">
            <mxRectangle x="110" y="180" width="140" height="30" as="alternateBounds" />
          </mxGeometry>
        </mxCell>
        <mxCell id="FZ6v5sqUs1EsnQ-WUJlG-155" style="edgeStyle=orthogonalEdgeStyle;rounded=0;orthogonalLoop=1;jettySize=auto;html=1;exitX=1;exitY=0.5;exitDx=0;exitDy=0;entryX=1.003;entryY=0.641;entryDx=0;entryDy=0;entryPerimeter=0;fillColor=#e51400;strokeColor=#B20000;strokeWidth=2;" parent="FZ6v5sqUs1EsnQ-WUJlG-148" source="FZ6v5sqUs1EsnQ-WUJlG-149" target="FZ6v5sqUs1EsnQ-WUJlG-153" edge="1">
          <mxGeometry relative="1" as="geometry">
            <Array as="points">
              <mxPoint x="300" y="543" />
              <mxPoint x="300" y="881" />
            </Array>
          </mxGeometry>
        </mxCell>
        <mxCell id="FZ6v5sqUs1EsnQ-WUJlG-149" value="银行支付" style="rounded=0;whiteSpace=wrap;html=1;verticalAlign=middle;align=center;fillColor=#fff2cc;strokeColor=#d6b656;" parent="FZ6v5sqUs1EsnQ-WUJlG-148" vertex="1">
          <mxGeometry x="105" y="513" width="120" height="60" as="geometry" />
        </mxCell>
        <mxCell id="FZ6v5sqUs1EsnQ-WUJlG-154" style="edgeStyle=orthogonalEdgeStyle;rounded=0;orthogonalLoop=1;jettySize=auto;html=1;exitX=0.5;exitY=1;exitDx=0;exitDy=0;entryX=0.5;entryY=0;entryDx=0;entryDy=0;fillColor=#e51400;strokeColor=#B20000;strokeWidth=2;" parent="FZ6v5sqUs1EsnQ-WUJlG-148" source="FZ6v5sqUs1EsnQ-WUJlG-150" target="FZ6v5sqUs1EsnQ-WUJlG-153" edge="1">
          <mxGeometry relative="1" as="geometry" />
        </mxCell>
        <mxCell id="FZ6v5sqUs1EsnQ-WUJlG-150" value="第三方支付" style="rounded=0;whiteSpace=wrap;html=1;verticalAlign=middle;align=center;fillColor=#fff2cc;strokeColor=#d6b656;" parent="FZ6v5sqUs1EsnQ-WUJlG-148" vertex="1">
          <mxGeometry x="105" y="677" width="120" height="60" as="geometry" />
        </mxCell>
        <mxCell id="FZ6v5sqUs1EsnQ-WUJlG-153" value="支付完成" style="rounded=1;whiteSpace=wrap;html=1;fillColor=#f8cecc;strokeColor=#b85450;" parent="FZ6v5sqUs1EsnQ-WUJlG-148" vertex="1">
          <mxGeometry x="105" y="843" width="120" height="60" as="geometry" />
        </mxCell>
        <mxCell id="FZ6v5sqUs1EsnQ-WUJlG-151" style="edgeStyle=orthogonalEdgeStyle;rounded=0;orthogonalLoop=1;jettySize=auto;html=1;exitX=1;exitY=0.5;exitDx=0;exitDy=0;entryX=0;entryY=0.5;entryDx=0;entryDy=0;fillColor=#e51400;strokeColor=#B20000;strokeWidth=2;" parent="1" source="FZ6v5sqUs1EsnQ-WUJlG-144" target="FZ6v5sqUs1EsnQ-WUJlG-149" edge="1">
          <mxGeometry relative="1" as="geometry" />
        </mxCell>
        <mxCell id="FZ6v5sqUs1EsnQ-WUJlG-157" value="支付中（锁定）" style="edgeLabel;html=1;align=center;verticalAlign=middle;resizable=0;points=[];" parent="FZ6v5sqUs1EsnQ-WUJlG-151" vertex="1" connectable="0">
          <mxGeometry x="-0.4082" y="-3" relative="1" as="geometry">
            <mxPoint y="-3" as="offset" />
          </mxGeometry>
        </mxCell>
        <mxCell id="FZ6v5sqUs1EsnQ-WUJlG-152" style="edgeStyle=orthogonalEdgeStyle;rounded=0;orthogonalLoop=1;jettySize=auto;html=1;exitX=1;exitY=0.5;exitDx=0;exitDy=0;entryX=0;entryY=0.5;entryDx=0;entryDy=0;fillColor=#e51400;strokeColor=#B20000;strokeWidth=2;" parent="1" source="FZ6v5sqUs1EsnQ-WUJlG-145" target="FZ6v5sqUs1EsnQ-WUJlG-150" edge="1">
          <mxGeometry relative="1" as="geometry" />
        </mxCell>
        <mxCell id="FZ6v5sqUs1EsnQ-WUJlG-158" value="支付中（锁定）" style="edgeLabel;html=1;align=center;verticalAlign=middle;resizable=0;points=[];" parent="FZ6v5sqUs1EsnQ-WUJlG-152" vertex="1" connectable="0">
          <mxGeometry x="-0.3775" y="2" relative="1" as="geometry">
            <mxPoint y="1" as="offset" />
          </mxGeometry>
        </mxCell>
        <mxCell id="FZ6v5sqUs1EsnQ-WUJlG-164" value="客户（TPY）" style="swimlane;whiteSpace=wrap;html=1;startSize=53;movable=1;resizable=1;rotatable=1;deletable=1;editable=1;locked=0;connectable=1;fillColor=#eeeeee;strokeColor=#36393d;fontSize=14;" parent="1" vertex="1">
          <mxGeometry x="-680" y="980" width="350" height="1950" as="geometry">
            <mxRectangle x="110" y="180" width="140" height="30" as="alternateBounds" />
          </mxGeometry>
        </mxCell>
        <mxCell id="FZ6v5sqUs1EsnQ-WUJlG-233" style="edgeStyle=orthogonalEdgeStyle;rounded=0;orthogonalLoop=1;jettySize=auto;html=1;exitX=0.5;exitY=1;exitDx=0;exitDy=0;entryX=0.5;entryY=0;entryDx=0;entryDy=0;strokeWidth=2;fillColor=#e51400;strokeColor=#B20000;" parent="FZ6v5sqUs1EsnQ-WUJlG-164" source="FZ6v5sqUs1EsnQ-WUJlG-168" target="FZ6v5sqUs1EsnQ-WUJlG-232" edge="1">
          <mxGeometry relative="1" as="geometry" />
        </mxCell>
        <mxCell id="FZ6v5sqUs1EsnQ-WUJlG-168" value="接收&lt;br&gt;完成订单" style="rounded=0;whiteSpace=wrap;html=1;verticalAlign=middle;align=center;fillColor=#fff2cc;strokeColor=#d6b656;" parent="FZ6v5sqUs1EsnQ-WUJlG-164" vertex="1">
          <mxGeometry x="92" y="222" width="120" height="60" as="geometry" />
        </mxCell>
        <mxCell id="FZ6v5sqUs1EsnQ-WUJlG-232" value="是否&lt;br&gt;接受成功" style="rhombus;whiteSpace=wrap;html=1;dashed=1;" parent="FZ6v5sqUs1EsnQ-WUJlG-164" vertex="1">
          <mxGeometry x="112" y="331" width="80" height="80" as="geometry" />
        </mxCell>
        <mxCell id="FZ6v5sqUs1EsnQ-WUJlG-213" value="" style="swimlane;startSize=0;" parent="FZ6v5sqUs1EsnQ-WUJlG-164" vertex="1">
          <mxGeometry y="550" width="350" height="1400" as="geometry" />
        </mxCell>
        <mxCell id="FZ6v5sqUs1EsnQ-WUJlG-255" style="edgeStyle=orthogonalEdgeStyle;rounded=0;orthogonalLoop=1;jettySize=auto;html=1;exitX=0.5;exitY=1;exitDx=0;exitDy=0;entryX=0.5;entryY=0;entryDx=0;entryDy=0;fillColor=#e51400;strokeColor=#B20000;strokeWidth=2;" parent="FZ6v5sqUs1EsnQ-WUJlG-213" source="FZ6v5sqUs1EsnQ-WUJlG-225" target="FZ6v5sqUs1EsnQ-WUJlG-253" edge="1">
          <mxGeometry relative="1" as="geometry" />
        </mxCell>
        <mxCell id="FZ6v5sqUs1EsnQ-WUJlG-225" value="接受&lt;br&gt;完成订单" style="rounded=0;whiteSpace=wrap;html=1;verticalAlign=middle;align=center;fillColor=#fff2cc;strokeColor=#d6b656;" parent="FZ6v5sqUs1EsnQ-WUJlG-213" vertex="1">
          <mxGeometry x="115" y="577" width="120" height="60" as="geometry" />
        </mxCell>
        <mxCell id="FZ6v5sqUs1EsnQ-WUJlG-253" value="是否&lt;br&gt;接受成功" style="rhombus;whiteSpace=wrap;html=1;dashed=1;" parent="FZ6v5sqUs1EsnQ-WUJlG-213" vertex="1">
          <mxGeometry x="110" y="734" width="130" height="80" as="geometry" />
        </mxCell>
        <mxCell id="FZ6v5sqUs1EsnQ-WUJlG-169" value="（对公）&lt;br&gt;上传凭证&lt;br&gt;&amp;amp;&lt;br&gt;手动推送" style="rounded=0;whiteSpace=wrap;html=1;fillColor=#eeeeee;strokeColor=#36393d;fontSize=18;fontStyle=1" parent="1" vertex="1">
          <mxGeometry x="-780" y="980" width="100" height="550" as="geometry" />
        </mxCell>
        <mxCell id="FZ6v5sqUs1EsnQ-WUJlG-170" value="支付清单（TPY）" style="swimlane;whiteSpace=wrap;html=1;startSize=53;movable=1;resizable=1;rotatable=1;deletable=1;editable=1;locked=0;connectable=1;fillColor=#eeeeee;strokeColor=#36393d;fontSize=14;" parent="1" vertex="1">
          <mxGeometry x="-330" y="980" width="350" height="1950" as="geometry">
            <mxRectangle x="110" y="180" width="140" height="30" as="alternateBounds" />
          </mxGeometry>
        </mxCell>
        <mxCell id="FZ6v5sqUs1EsnQ-WUJlG-231" style="edgeStyle=orthogonalEdgeStyle;rounded=0;orthogonalLoop=1;jettySize=auto;html=1;exitX=0.5;exitY=1;exitDx=0;exitDy=0;entryX=0.5;entryY=0;entryDx=0;entryDy=0;" parent="FZ6v5sqUs1EsnQ-WUJlG-170" source="FZ6v5sqUs1EsnQ-WUJlG-173" target="FZ6v5sqUs1EsnQ-WUJlG-228" edge="1">
          <mxGeometry relative="1" as="geometry" />
        </mxCell>
        <mxCell id="FZ6v5sqUs1EsnQ-WUJlG-173" value="已支付&lt;br&gt;待推送记录" style="rounded=0;whiteSpace=wrap;html=1;verticalAlign=middle;align=center;fillColor=#fff2cc;strokeColor=#d6b656;" parent="FZ6v5sqUs1EsnQ-WUJlG-170" vertex="1">
          <mxGeometry x="105" y="89" width="120" height="60" as="geometry" />
        </mxCell>
        <mxCell id="FZ6v5sqUs1EsnQ-WUJlG-228" value="待推送记录" style="rounded=0;whiteSpace=wrap;html=1;verticalAlign=middle;align=center;fillColor=#fff2cc;strokeColor=#d6b656;" parent="FZ6v5sqUs1EsnQ-WUJlG-170" vertex="1">
          <mxGeometry x="105" y="222" width="120" height="60" as="geometry" />
        </mxCell>
        <mxCell id="FZ6v5sqUs1EsnQ-WUJlG-193" value="已完成记录" style="rounded=1;whiteSpace=wrap;html=1;fillColor=#f8cecc;strokeColor=#b85450;" parent="FZ6v5sqUs1EsnQ-WUJlG-170" vertex="1">
          <mxGeometry x="106" y="462" width="120" height="60" as="geometry" />
        </mxCell>
        <mxCell id="kbjK1IBCzuBrz2MPu3hV-1" style="edgeStyle=orthogonalEdgeStyle;rounded=0;orthogonalLoop=1;jettySize=auto;html=1;exitX=0.5;exitY=0;exitDx=0;exitDy=0;entryX=0.5;entryY=1;entryDx=0;entryDy=0;" edge="1" parent="FZ6v5sqUs1EsnQ-WUJlG-170" source="FZ6v5sqUs1EsnQ-WUJlG-240" target="FZ6v5sqUs1EsnQ-WUJlG-228">
          <mxGeometry relative="1" as="geometry" />
        </mxCell>
        <mxCell id="FZ6v5sqUs1EsnQ-WUJlG-240" value="推送失败记录" style="rounded=0;whiteSpace=wrap;html=1;verticalAlign=middle;align=center;fillColor=#fff2cc;strokeColor=#d6b656;" parent="FZ6v5sqUs1EsnQ-WUJlG-170" vertex="1">
          <mxGeometry x="105" y="342" width="120" height="60" as="geometry" />
        </mxCell>
        <mxCell id="FZ6v5sqUs1EsnQ-WUJlG-216" value="（对私）&lt;br&gt;上传凭证&lt;br&gt;&amp;amp;&lt;br&gt;手动推送" style="rounded=0;whiteSpace=wrap;html=1;fillColor=#eeeeee;strokeColor=#36393d;fontSize=18;fontStyle=1" parent="FZ6v5sqUs1EsnQ-WUJlG-170" vertex="1">
          <mxGeometry x="-449" y="550" width="100" height="1400" as="geometry" />
        </mxCell>
        <mxCell id="FZ6v5sqUs1EsnQ-WUJlG-212" value="" style="swimlane;startSize=0;" parent="FZ6v5sqUs1EsnQ-WUJlG-170" vertex="1">
          <mxGeometry y="550" width="350" height="1400" as="geometry" />
        </mxCell>
        <mxCell id="FZ6v5sqUs1EsnQ-WUJlG-266" style="edgeStyle=orthogonalEdgeStyle;rounded=0;orthogonalLoop=1;jettySize=auto;html=1;exitX=0.5;exitY=1;exitDx=0;exitDy=0;entryX=0.5;entryY=0;entryDx=0;entryDy=0;fillColor=#e51400;strokeColor=#B20000;strokeWidth=2;" parent="FZ6v5sqUs1EsnQ-WUJlG-212" source="FZ6v5sqUs1EsnQ-WUJlG-222" target="FZ6v5sqUs1EsnQ-WUJlG-258" edge="1">
          <mxGeometry relative="1" as="geometry" />
        </mxCell>
        <mxCell id="FZ6v5sqUs1EsnQ-WUJlG-222" value="已支付&lt;br&gt;待推送记录" style="rounded=0;whiteSpace=wrap;html=1;verticalAlign=middle;align=center;fillColor=#fff2cc;strokeColor=#d6b656;" parent="FZ6v5sqUs1EsnQ-WUJlG-212" vertex="1">
          <mxGeometry x="116" y="270" width="120" height="60" as="geometry" />
        </mxCell>
        <mxCell id="FZ6v5sqUs1EsnQ-WUJlG-224" value="待推送记录" style="rounded=0;whiteSpace=wrap;html=1;verticalAlign=middle;align=center;fillColor=#fff2cc;strokeColor=#d6b656;" parent="FZ6v5sqUs1EsnQ-WUJlG-212" vertex="1">
          <mxGeometry x="116" y="577" width="120" height="60" as="geometry" />
        </mxCell>
        <mxCell id="FZ6v5sqUs1EsnQ-WUJlG-256" value="清单已完成" style="rounded=1;whiteSpace=wrap;html=1;fillColor=#f8cecc;strokeColor=#b85450;" parent="FZ6v5sqUs1EsnQ-WUJlG-212" vertex="1">
          <mxGeometry x="121" y="897" width="120" height="60" as="geometry" />
        </mxCell>
        <mxCell id="FZ6v5sqUs1EsnQ-WUJlG-269" style="edgeStyle=orthogonalEdgeStyle;rounded=0;orthogonalLoop=1;jettySize=auto;html=1;exitX=0.5;exitY=1;exitDx=0;exitDy=0;entryX=0.5;entryY=0;entryDx=0;entryDy=0;fillColor=#e51400;strokeColor=#B20000;strokeWidth=2;" parent="FZ6v5sqUs1EsnQ-WUJlG-212" source="FZ6v5sqUs1EsnQ-WUJlG-258" target="FZ6v5sqUs1EsnQ-WUJlG-224" edge="1">
          <mxGeometry relative="1" as="geometry" />
        </mxCell>
        <mxCell id="FZ6v5sqUs1EsnQ-WUJlG-270" value="正常" style="edgeLabel;html=1;align=center;verticalAlign=middle;resizable=0;points=[];" parent="FZ6v5sqUs1EsnQ-WUJlG-269" vertex="1" connectable="0">
          <mxGeometry x="-0.2129" relative="1" as="geometry">
            <mxPoint y="2" as="offset" />
          </mxGeometry>
        </mxCell>
        <mxCell id="FZ6v5sqUs1EsnQ-WUJlG-258" value="是否&lt;br&gt;存在异常" style="rhombus;whiteSpace=wrap;html=1;dashed=1;" parent="FZ6v5sqUs1EsnQ-WUJlG-212" vertex="1">
          <mxGeometry x="136" y="401" width="80" height="80" as="geometry" />
        </mxCell>
        <mxCell id="kbjK1IBCzuBrz2MPu3hV-11" style="edgeStyle=orthogonalEdgeStyle;rounded=0;orthogonalLoop=1;jettySize=auto;html=1;exitX=0.5;exitY=0;exitDx=0;exitDy=0;fillColor=#e51400;strokeColor=#B20000;strokeWidth=2;" edge="1" parent="FZ6v5sqUs1EsnQ-WUJlG-212" source="FZ6v5sqUs1EsnQ-WUJlG-226" target="FZ6v5sqUs1EsnQ-WUJlG-224">
          <mxGeometry relative="1" as="geometry" />
        </mxCell>
        <mxCell id="FZ6v5sqUs1EsnQ-WUJlG-226" value="推送失败&lt;br&gt;记录" style="rounded=0;whiteSpace=wrap;html=1;verticalAlign=middle;align=center;fillColor=#fff2cc;strokeColor=#d6b656;" parent="FZ6v5sqUs1EsnQ-WUJlG-212" vertex="1">
          <mxGeometry x="116" y="744" width="120" height="60" as="geometry" />
        </mxCell>
        <mxCell id="FZ6v5sqUs1EsnQ-WUJlG-188" value="支付平台" style="swimlane;whiteSpace=wrap;html=1;startSize=53;movable=1;resizable=1;rotatable=1;deletable=1;editable=1;locked=0;connectable=1;fillColor=#eeeeee;strokeColor=#36393d;fontSize=14;" parent="1" vertex="1">
          <mxGeometry x="370" y="980" width="350" height="550" as="geometry">
            <mxRectangle x="110" y="180" width="140" height="30" as="alternateBounds" />
          </mxGeometry>
        </mxCell>
        <mxCell id="FZ6v5sqUs1EsnQ-WUJlG-167" value="支付完成" style="rounded=1;whiteSpace=wrap;html=1;verticalAlign=middle;align=center;fillColor=#dae8fc;strokeColor=#6c8ebf;" parent="FZ6v5sqUs1EsnQ-WUJlG-188" vertex="1">
          <mxGeometry x="115" y="89" width="120" height="60" as="geometry" />
        </mxCell>
        <mxCell id="FZ6v5sqUs1EsnQ-WUJlG-230" style="edgeStyle=orthogonalEdgeStyle;rounded=0;orthogonalLoop=1;jettySize=auto;html=1;exitX=0;exitY=0.5;exitDx=0;exitDy=0;entryX=1;entryY=0.5;entryDx=0;entryDy=0;strokeWidth=2;fillColor=#e51400;strokeColor=#B20000;" parent="1" source="FZ6v5sqUs1EsnQ-WUJlG-167" target="FZ6v5sqUs1EsnQ-WUJlG-198" edge="1">
          <mxGeometry relative="1" as="geometry" />
        </mxCell>
        <mxCell id="FZ6v5sqUs1EsnQ-WUJlG-235" style="edgeStyle=orthogonalEdgeStyle;rounded=0;orthogonalLoop=1;jettySize=auto;html=1;exitX=0;exitY=0.5;exitDx=0;exitDy=0;entryX=1;entryY=0.5;entryDx=0;entryDy=0;strokeWidth=2;fillColor=#e51400;strokeColor=#B20000;" parent="1" source="FZ6v5sqUs1EsnQ-WUJlG-228" target="FZ6v5sqUs1EsnQ-WUJlG-168" edge="1">
          <mxGeometry relative="1" as="geometry" />
        </mxCell>
        <mxCell id="FZ6v5sqUs1EsnQ-WUJlG-241" style="edgeStyle=orthogonalEdgeStyle;rounded=0;orthogonalLoop=1;jettySize=auto;html=1;exitX=1;exitY=0.5;exitDx=0;exitDy=0;entryX=0;entryY=0.5;entryDx=0;entryDy=0;strokeWidth=2;fillColor=#e51400;strokeColor=#B20000;" parent="1" source="FZ6v5sqUs1EsnQ-WUJlG-232" target="FZ6v5sqUs1EsnQ-WUJlG-240" edge="1">
          <mxGeometry relative="1" as="geometry" />
        </mxCell>
        <mxCell id="FZ6v5sqUs1EsnQ-WUJlG-249" value="失败" style="edgeLabel;html=1;align=center;verticalAlign=middle;resizable=0;points=[];" parent="FZ6v5sqUs1EsnQ-WUJlG-241" vertex="1" connectable="0">
          <mxGeometry x="-0.0614" relative="1" as="geometry">
            <mxPoint x="1" as="offset" />
          </mxGeometry>
        </mxCell>
        <mxCell id="FZ6v5sqUs1EsnQ-WUJlG-247" style="edgeStyle=orthogonalEdgeStyle;rounded=0;orthogonalLoop=1;jettySize=auto;html=1;exitX=0.5;exitY=1;exitDx=0;exitDy=0;entryX=0;entryY=0.5;entryDx=0;entryDy=0;strokeWidth=2;fillColor=#e51400;strokeColor=#B20000;" parent="1" source="FZ6v5sqUs1EsnQ-WUJlG-232" target="FZ6v5sqUs1EsnQ-WUJlG-193" edge="1">
          <mxGeometry relative="1" as="geometry" />
        </mxCell>
        <mxCell id="FZ6v5sqUs1EsnQ-WUJlG-248" value="成功" style="edgeLabel;html=1;align=center;verticalAlign=middle;resizable=0;points=[];" parent="FZ6v5sqUs1EsnQ-WUJlG-247" vertex="1" connectable="0">
          <mxGeometry x="-0.7829" y="-2" relative="1" as="geometry">
            <mxPoint as="offset" />
          </mxGeometry>
        </mxCell>
        <mxCell id="FZ6v5sqUs1EsnQ-WUJlG-278" style="edgeStyle=orthogonalEdgeStyle;rounded=0;orthogonalLoop=1;jettySize=auto;html=1;exitX=1;exitY=0.5;exitDx=0;exitDy=0;entryX=0;entryY=0.5;entryDx=0;entryDy=0;fillColor=#e51400;strokeColor=#B20000;strokeWidth=2;" parent="1" source="FZ6v5sqUs1EsnQ-WUJlG-253" target="FZ6v5sqUs1EsnQ-WUJlG-226" edge="1">
          <mxGeometry relative="1" as="geometry" />
        </mxCell>
        <mxCell id="FZ6v5sqUs1EsnQ-WUJlG-279" value="失败" style="edgeLabel;html=1;align=center;verticalAlign=middle;resizable=0;points=[];" parent="FZ6v5sqUs1EsnQ-WUJlG-278" vertex="1" connectable="0">
          <mxGeometry x="-0.3347" y="3" relative="1" as="geometry">
            <mxPoint x="-8" y="2" as="offset" />
          </mxGeometry>
        </mxCell>
        <mxCell id="FZ6v5sqUs1EsnQ-WUJlG-273" style="edgeStyle=orthogonalEdgeStyle;rounded=0;orthogonalLoop=1;jettySize=auto;html=1;exitX=0;exitY=0.5;exitDx=0;exitDy=0;fillColor=#e51400;strokeColor=#B20000;strokeWidth=2;" parent="1" source="FZ6v5sqUs1EsnQ-WUJlG-224" target="FZ6v5sqUs1EsnQ-WUJlG-225" edge="1">
          <mxGeometry relative="1" as="geometry" />
        </mxCell>
        <mxCell id="FZ6v5sqUs1EsnQ-WUJlG-274" value="API推送方式" style="edgeLabel;html=1;align=center;verticalAlign=middle;resizable=0;points=[];" parent="FZ6v5sqUs1EsnQ-WUJlG-273" vertex="1" connectable="0">
          <mxGeometry x="0.2403" relative="1" as="geometry">
            <mxPoint x="25" y="-1" as="offset" />
          </mxGeometry>
        </mxCell>
        <mxCell id="FZ6v5sqUs1EsnQ-WUJlG-280" style="edgeStyle=orthogonalEdgeStyle;rounded=0;orthogonalLoop=1;jettySize=auto;html=1;exitX=0.5;exitY=1;exitDx=0;exitDy=0;entryX=0;entryY=0.5;entryDx=0;entryDy=0;fillColor=#e51400;strokeColor=#B20000;strokeWidth=2;" parent="1" source="FZ6v5sqUs1EsnQ-WUJlG-253" target="FZ6v5sqUs1EsnQ-WUJlG-256" edge="1">
          <mxGeometry relative="1" as="geometry" />
        </mxCell>
        <mxCell id="FZ6v5sqUs1EsnQ-WUJlG-282" value="成功" style="edgeLabel;html=1;align=center;verticalAlign=middle;resizable=0;points=[];" parent="FZ6v5sqUs1EsnQ-WUJlG-280" vertex="1" connectable="0">
          <mxGeometry x="-0.7921" relative="1" as="geometry">
            <mxPoint as="offset" />
          </mxGeometry>
        </mxCell>
        <mxCell id="FZ6v5sqUs1EsnQ-WUJlG-183" value="财务操作管理" style="swimlane;whiteSpace=wrap;html=1;startSize=53;movable=1;resizable=1;rotatable=1;deletable=1;editable=1;locked=0;connectable=1;fillColor=#eeeeee;strokeColor=#36393d;fontSize=14;" parent="1" vertex="1">
          <mxGeometry x="20" y="980" width="350" height="550" as="geometry">
            <mxRectangle x="110" y="180" width="140" height="30" as="alternateBounds" />
          </mxGeometry>
        </mxCell>
        <mxCell id="FZ6v5sqUs1EsnQ-WUJlG-229" value="点击推送" style="rounded=0;whiteSpace=wrap;html=1;verticalAlign=middle;align=center;fillColor=#fff2cc;strokeColor=#d6b656;" parent="FZ6v5sqUs1EsnQ-WUJlG-183" vertex="1">
          <mxGeometry x="115" y="222" width="120" height="60" as="geometry" />
        </mxCell>
        <mxCell id="kbjK1IBCzuBrz2MPu3hV-6" style="edgeStyle=orthogonalEdgeStyle;rounded=0;orthogonalLoop=1;jettySize=auto;html=1;exitX=0.5;exitY=0;exitDx=0;exitDy=0;entryX=0.5;entryY=1;entryDx=0;entryDy=0;strokeWidth=2;fillColor=#e51400;strokeColor=#B20000;" edge="1" parent="FZ6v5sqUs1EsnQ-WUJlG-183" source="kbjK1IBCzuBrz2MPu3hV-4" target="FZ6v5sqUs1EsnQ-WUJlG-229">
          <mxGeometry relative="1" as="geometry" />
        </mxCell>
        <mxCell id="kbjK1IBCzuBrz2MPu3hV-4" value="财务" style="rounded=0;whiteSpace=wrap;html=1;verticalAlign=middle;align=center;fillColor=#fff2cc;strokeColor=#d6b656;" vertex="1" parent="FZ6v5sqUs1EsnQ-WUJlG-183">
          <mxGeometry x="115" y="342" width="120" height="60" as="geometry" />
        </mxCell>
        <mxCell id="FZ6v5sqUs1EsnQ-WUJlG-204" style="edgeStyle=orthogonalEdgeStyle;rounded=0;orthogonalLoop=1;jettySize=auto;html=1;exitX=0;exitY=0.5;exitDx=0;exitDy=0;entryX=1;entryY=0.5;entryDx=0;entryDy=0;strokeWidth=2;fillColor=#e51400;strokeColor=#B20000;" parent="1" source="FZ6v5sqUs1EsnQ-WUJlG-198" target="FZ6v5sqUs1EsnQ-WUJlG-173" edge="1">
          <mxGeometry relative="1" as="geometry" />
        </mxCell>
        <mxCell id="FZ6v5sqUs1EsnQ-WUJlG-210" value="更新状态" style="edgeLabel;html=1;align=center;verticalAlign=middle;resizable=0;points=[];" parent="FZ6v5sqUs1EsnQ-WUJlG-204" vertex="1" connectable="0">
          <mxGeometry x="0.0688" y="1" relative="1" as="geometry">
            <mxPoint x="13" y="-2" as="offset" />
          </mxGeometry>
        </mxCell>
        <mxCell id="kbjK1IBCzuBrz2MPu3hV-7" style="edgeStyle=orthogonalEdgeStyle;rounded=0;orthogonalLoop=1;jettySize=auto;html=1;exitX=1;exitY=0.5;exitDx=0;exitDy=0;entryX=0;entryY=0.5;entryDx=0;entryDy=0;strokeWidth=2;fillColor=#e51400;strokeColor=#B20000;" edge="1" parent="1" source="FZ6v5sqUs1EsnQ-WUJlG-240" target="kbjK1IBCzuBrz2MPu3hV-4">
          <mxGeometry relative="1" as="geometry" />
        </mxCell>
        <mxCell id="kbjK1IBCzuBrz2MPu3hV-12" value="短信通知" style="edgeLabel;html=1;align=center;verticalAlign=middle;resizable=0;points=[];" vertex="1" connectable="0" parent="kbjK1IBCzuBrz2MPu3hV-7">
          <mxGeometry x="-0.075" relative="1" as="geometry">
            <mxPoint x="14" as="offset" />
          </mxGeometry>
        </mxCell>
        <mxCell id="FZ6v5sqUs1EsnQ-WUJlG-198" value="手工录入&lt;br&gt;支付凭证" style="rounded=0;whiteSpace=wrap;html=1;verticalAlign=middle;align=center;fillColor=#fff2cc;strokeColor=#d6b656;" parent="1" vertex="1">
          <mxGeometry x="135" y="1069" width="120" height="60" as="geometry" />
        </mxCell>
        <mxCell id="FZ6v5sqUs1EsnQ-WUJlG-215" value="" style="swimlane;startSize=0;" parent="1" vertex="1">
          <mxGeometry x="370" y="1530" width="350" height="1400" as="geometry" />
        </mxCell>
        <mxCell id="FZ6v5sqUs1EsnQ-WUJlG-250" style="edgeStyle=orthogonalEdgeStyle;rounded=0;orthogonalLoop=1;jettySize=auto;html=1;exitX=0.5;exitY=1;exitDx=0;exitDy=0;entryX=0.5;entryY=0;entryDx=0;entryDy=0;fillColor=#e51400;strokeColor=#B20000;strokeWidth=2;" parent="FZ6v5sqUs1EsnQ-WUJlG-215" source="FZ6v5sqUs1EsnQ-WUJlG-217" target="FZ6v5sqUs1EsnQ-WUJlG-218" edge="1">
          <mxGeometry relative="1" as="geometry" />
        </mxCell>
        <mxCell id="FZ6v5sqUs1EsnQ-WUJlG-217" value="支付完成" style="rounded=1;whiteSpace=wrap;html=1;verticalAlign=middle;align=center;fillColor=#dae8fc;strokeColor=#6c8ebf;" parent="FZ6v5sqUs1EsnQ-WUJlG-215" vertex="1">
          <mxGeometry x="105" y="42" width="120" height="60" as="geometry" />
        </mxCell>
        <mxCell id="FZ6v5sqUs1EsnQ-WUJlG-218" value="下载支付凭证&lt;br&gt;EXCL" style="rounded=0;whiteSpace=wrap;html=1;verticalAlign=middle;align=center;fillColor=#fff2cc;strokeColor=#d6b656;" parent="FZ6v5sqUs1EsnQ-WUJlG-215" vertex="1">
          <mxGeometry x="105" y="160" width="120" height="60" as="geometry" />
        </mxCell>
        <mxCell id="FZ6v5sqUs1EsnQ-WUJlG-271" style="edgeStyle=orthogonalEdgeStyle;rounded=0;orthogonalLoop=1;jettySize=auto;html=1;exitX=0;exitY=0.5;exitDx=0;exitDy=0;entryX=1;entryY=0.5;entryDx=0;entryDy=0;fillColor=#e51400;strokeColor=#B20000;strokeWidth=2;" parent="1" source="FZ6v5sqUs1EsnQ-WUJlG-218" target="FZ6v5sqUs1EsnQ-WUJlG-221" edge="1">
          <mxGeometry relative="1" as="geometry" />
        </mxCell>
        <mxCell id="FZ6v5sqUs1EsnQ-WUJlG-214" value="" style="swimlane;startSize=0;" parent="1" vertex="1">
          <mxGeometry x="20" y="1530" width="350" height="1400" as="geometry">
            <mxRectangle x="350" width="50" height="40" as="alternateBounds" />
          </mxGeometry>
        </mxCell>
        <mxCell id="FZ6v5sqUs1EsnQ-WUJlG-220" value="导入凭证&lt;br&gt;自动匹配" style="rounded=0;whiteSpace=wrap;html=1;verticalAlign=middle;align=center;fillColor=#fff2cc;strokeColor=#d6b656;" parent="FZ6v5sqUs1EsnQ-WUJlG-214" vertex="1">
          <mxGeometry x="121" y="270" width="120" height="60" as="geometry" />
        </mxCell>
        <mxCell id="kbjK1IBCzuBrz2MPu3hV-8" style="edgeStyle=orthogonalEdgeStyle;rounded=0;orthogonalLoop=1;jettySize=auto;html=1;exitX=0.5;exitY=1;exitDx=0;exitDy=0;entryX=0.5;entryY=0;entryDx=0;entryDy=0;fillColor=#e51400;strokeColor=#B20000;strokeWidth=2;" edge="1" parent="FZ6v5sqUs1EsnQ-WUJlG-214" source="FZ6v5sqUs1EsnQ-WUJlG-221" target="FZ6v5sqUs1EsnQ-WUJlG-220">
          <mxGeometry relative="1" as="geometry" />
        </mxCell>
        <mxCell id="FZ6v5sqUs1EsnQ-WUJlG-221" value="选择批次" style="rounded=0;whiteSpace=wrap;html=1;verticalAlign=middle;align=center;fillColor=#fff2cc;strokeColor=#d6b656;" parent="FZ6v5sqUs1EsnQ-WUJlG-214" vertex="1">
          <mxGeometry x="121" y="160" width="120" height="60" as="geometry" />
        </mxCell>
        <mxCell id="FZ6v5sqUs1EsnQ-WUJlG-251" value="点击推送" style="rounded=0;whiteSpace=wrap;html=1;verticalAlign=middle;align=center;fillColor=#fff2cc;strokeColor=#d6b656;" parent="FZ6v5sqUs1EsnQ-WUJlG-214" vertex="1">
          <mxGeometry x="121" y="577" width="120" height="60" as="geometry" />
        </mxCell>
        <mxCell id="FZ6v5sqUs1EsnQ-WUJlG-252" value="财务" style="rounded=0;whiteSpace=wrap;html=1;verticalAlign=middle;align=center;fillColor=#fff2cc;strokeColor=#d6b656;" parent="FZ6v5sqUs1EsnQ-WUJlG-214" vertex="1">
          <mxGeometry x="121" y="744" width="120" height="60" as="geometry" />
        </mxCell>
        <mxCell id="FZ6v5sqUs1EsnQ-WUJlG-265" style="edgeStyle=orthogonalEdgeStyle;rounded=0;orthogonalLoop=1;jettySize=auto;html=1;exitX=0.5;exitY=0;exitDx=0;exitDy=0;entryX=0.5;entryY=1;entryDx=0;entryDy=0;fillColor=#e51400;strokeColor=#B20000;strokeWidth=2;" parent="FZ6v5sqUs1EsnQ-WUJlG-214" source="FZ6v5sqUs1EsnQ-WUJlG-257" target="FZ6v5sqUs1EsnQ-WUJlG-220" edge="1">
          <mxGeometry relative="1" as="geometry" />
        </mxCell>
        <mxCell id="FZ6v5sqUs1EsnQ-WUJlG-272" value="整理格式后重新导入" style="edgeLabel;html=1;align=center;verticalAlign=middle;resizable=0;points=[];" parent="FZ6v5sqUs1EsnQ-WUJlG-265" vertex="1" connectable="0">
          <mxGeometry x="-0.2069" relative="1" as="geometry">
            <mxPoint as="offset" />
          </mxGeometry>
        </mxCell>
        <mxCell id="FZ6v5sqUs1EsnQ-WUJlG-257" value="批量删除" style="rounded=0;whiteSpace=wrap;html=1;verticalAlign=middle;align=center;fillColor=#fff2cc;strokeColor=#d6b656;" parent="FZ6v5sqUs1EsnQ-WUJlG-214" vertex="1">
          <mxGeometry x="121" y="411" width="120" height="60" as="geometry" />
        </mxCell>
        <mxCell id="FZ6v5sqUs1EsnQ-WUJlG-262" style="edgeStyle=orthogonalEdgeStyle;rounded=0;orthogonalLoop=1;jettySize=auto;html=1;exitX=0;exitY=0.5;exitDx=0;exitDy=0;entryX=1;entryY=0.5;entryDx=0;entryDy=0;fillColor=#e51400;strokeColor=#B20000;strokeWidth=2;" parent="1" source="FZ6v5sqUs1EsnQ-WUJlG-220" target="FZ6v5sqUs1EsnQ-WUJlG-222" edge="1">
          <mxGeometry relative="1" as="geometry" />
        </mxCell>
        <mxCell id="FZ6v5sqUs1EsnQ-WUJlG-275" style="edgeStyle=orthogonalEdgeStyle;rounded=0;orthogonalLoop=1;jettySize=auto;html=1;exitX=0;exitY=0.5;exitDx=0;exitDy=0;entryX=1;entryY=0.5;entryDx=0;entryDy=0;fillColor=#e51400;strokeColor=#B20000;strokeWidth=2;" parent="1" source="FZ6v5sqUs1EsnQ-WUJlG-251" target="FZ6v5sqUs1EsnQ-WUJlG-224" edge="1">
          <mxGeometry relative="1" as="geometry" />
        </mxCell>
        <mxCell id="FZ6v5sqUs1EsnQ-WUJlG-267" style="edgeStyle=orthogonalEdgeStyle;rounded=0;orthogonalLoop=1;jettySize=auto;html=1;exitX=1;exitY=0.5;exitDx=0;exitDy=0;entryX=0;entryY=0.5;entryDx=0;entryDy=0;fillColor=#e51400;strokeColor=#B20000;strokeWidth=2;" parent="1" source="FZ6v5sqUs1EsnQ-WUJlG-258" target="FZ6v5sqUs1EsnQ-WUJlG-257" edge="1">
          <mxGeometry relative="1" as="geometry" />
        </mxCell>
        <mxCell id="FZ6v5sqUs1EsnQ-WUJlG-268" value="数据异常" style="edgeLabel;html=1;align=center;verticalAlign=middle;resizable=0;points=[];" parent="FZ6v5sqUs1EsnQ-WUJlG-267" vertex="1" connectable="0">
          <mxGeometry x="-0.4051" y="-2" relative="1" as="geometry">
            <mxPoint x="57" y="-2" as="offset" />
          </mxGeometry>
        </mxCell>
        <mxCell id="kbjK1IBCzuBrz2MPu3hV-9" style="edgeStyle=orthogonalEdgeStyle;rounded=0;orthogonalLoop=1;jettySize=auto;html=1;exitX=0;exitY=0.5;exitDx=0;exitDy=0;entryX=1;entryY=0.5;entryDx=0;entryDy=0;strokeWidth=2;fillColor=#e51400;strokeColor=#B20000;" edge="1" parent="1" source="FZ6v5sqUs1EsnQ-WUJlG-229" target="FZ6v5sqUs1EsnQ-WUJlG-228">
          <mxGeometry relative="1" as="geometry" />
        </mxCell>
        <mxCell id="kbjK1IBCzuBrz2MPu3hV-10" value="手动推送" style="edgeLabel;html=1;align=center;verticalAlign=middle;resizable=0;points=[];" vertex="1" connectable="0" parent="kbjK1IBCzuBrz2MPu3hV-9">
          <mxGeometry x="0.125" y="2" relative="1" as="geometry">
            <mxPoint x="18" y="-2" as="offset" />
          </mxGeometry>
        </mxCell>
        <mxCell id="kbjK1IBCzuBrz2MPu3hV-13" style="edgeStyle=orthogonalEdgeStyle;rounded=0;orthogonalLoop=1;jettySize=auto;html=1;exitX=1;exitY=0.5;exitDx=0;exitDy=0;fillColor=#e51400;strokeColor=#B20000;strokeWidth=2;" edge="1" parent="1" source="FZ6v5sqUs1EsnQ-WUJlG-226" target="FZ6v5sqUs1EsnQ-WUJlG-252">
          <mxGeometry relative="1" as="geometry" />
        </mxCell>
        <mxCell id="kbjK1IBCzuBrz2MPu3hV-14" value="短信通知" style="edgeLabel;html=1;align=center;verticalAlign=middle;resizable=0;points=[];" vertex="1" connectable="0" parent="kbjK1IBCzuBrz2MPu3hV-13">
          <mxGeometry x="-0.1404" y="-1" relative="1" as="geometry">
            <mxPoint x="13" y="-1" as="offset" />
          </mxGeometry>
        </mxCell>
      </root>
    </mxGraphModel>
  </diagram>
</mxfile>
